<?xml version="1.0" encoding="UTF-8"?>
<svg id="Layer_2" data-name="Layer 2" xmlns="http://www.w3.org/2000/svg" viewBox="0 0 766.49 542.15">
  <defs>
    <style>
      .cls-1 {
        fill: #00529a;
        stroke: #fff;
        stroke-miterlimit: 10;
        stroke-width: 1.61px;
      }

      .cls-2 {
        fill: #ed2d25;
      }

      .cls-3 {
        fill: #ed3026;
      }

      .cls-4 {
        fill: #fff;
      }

      .cls-5 {
        fill: #064f8e;
      }
    </style>
  </defs>
  <g id="Layer_1-2" data-name="Layer 1">
    <g>
      <path class="cls-5" d="M46.89,334.16c3.13-1.41,5.6-3.54,7.43-6.37,1.83-2.83,2.74-5.94,2.74-9.33,0-3.12-.74-5.95-2.22-8.46-1.48-2.52-3.33-4.53-5.55-6.05-2.22-1.51-4.74-2.51-7.55-2.99-2.81-.48-7.08-.72-12.81-.72H0v72.36h24.63c9.31-.07,15.19-.23,17.62-.49,3.88-.43,7.15-1.57,9.8-3.43,2.65-1.86,4.74-4.34,6.27-7.45,1.53-3.11,2.3-6.31,2.3-9.6,0-4.18-1.18-7.82-3.55-10.91-2.37-3.09-5.76-5.28-10.17-6.57ZM14.61,312.29h8.39c6.88,0,11.04.08,12.49.25,2.44.3,4.27,1.14,5.5,2.54,1.23,1.4,1.85,3.22,1.85,5.45s-.72,4.22-2.15,5.65c-1.43,1.43-3.4,2.3-5.9,2.59-1.38.17-4.92.25-10.61.25h-9.58v-16.73ZM43.46,357.08c-1.37,1.53-3.13,2.49-5.31,2.89-1.42.3-4.76.44-10.02.44h-13.52v-19.35h11.8c6.65,0,10.97.35,12.96,1.04,1.99.69,3.51,1.79,4.57,3.31,1.05,1.51,1.58,3.36,1.58,5.53,0,2.57-.68,4.61-2.05,6.15ZM108.54,299.01c-5.89,0-11.09.96-15.6,2.86-3.39,1.42-6.51,3.59-9.35,6.52-2.85,2.93-5.09,6.24-6.74,9.92-2.21,5-3.31,11.19-3.31,18.56,0,11.52,3.18,20.56,9.53,27.12,6.35,6.57,14.91,9.85,25.67,9.85s19.12-3.3,25.47-9.9c6.35-6.6,9.53-15.74,9.53-27.42s-3.2-20.98-9.6-27.59c-6.4-6.61-14.93-9.92-25.59-9.92ZM123.03,355.06c-3.73,4.2-8.51,6.29-14.34,6.29s-10.63-2.11-14.41-6.34c-3.78-4.23-5.68-10.44-5.68-18.63s1.84-14.55,5.53-18.68c3.68-4.13,8.54-6.19,14.56-6.19s10.85,2.04,14.49,6.12c3.64,4.08,5.45,10.27,5.45,18.56s-1.87,14.68-5.6,18.88ZM202.67,300.25h13.57v72.36h-14.66l-29.17-47.19v47.19h-13.57v-72.36h14.21l29.62,48.32v-48.32ZM279.22,300.25h13.57v72.36h-14.66l-29.17-47.19v47.19h-13.57v-72.36h14.22l29.62,48.32v-48.32ZM326.41,360.41h40.42v12.19h-55.03v-72.36h53.65v12.24h-39.04v16.04h36.33v12.19h-36.33v19.69ZM458.81,346.74c-2.06-2.2-4.66-4.23-7.82-6.07,6.35-.92,11.12-3.15,14.31-6.69,3.19-3.54,4.79-8.02,4.79-13.45,0-4.28-1.05-8.08-3.16-11.4-2.11-3.32-4.91-5.64-8.42-6.94-3.5-1.3-9.12-1.95-16.86-1.95h-30.75v72.36h14.61v-30.21h2.96c3.36,0,5.81.27,7.35.81,1.55.54,3.01,1.55,4.39,3.01,1.38,1.46,3.95,5.01,7.7,10.64l10.56,15.75h17.47l-8.84-14.12c-3.49-5.63-6.26-9.54-8.32-11.75ZM436.33,330.85h-10.81v-18.36h11.4c5.92,0,9.48.08,10.66.25,2.37.4,4.2,1.34,5.5,2.84,1.3,1.5,1.95,3.46,1.95,5.9,0,2.17-.49,3.98-1.48,5.43-.99,1.45-2.35,2.47-4.1,3.06-1.74.59-6.12.89-13.13.89ZM519.45,299.01c-5.89,0-11.09.96-15.6,2.86-3.39,1.42-6.51,3.59-9.35,6.52-2.85,2.93-5.09,6.24-6.74,9.92-2.21,5-3.31,11.19-3.31,18.56,0,11.52,3.18,20.56,9.53,27.12,6.35,6.57,14.91,9.85,25.67,9.85s19.12-3.3,25.47-9.9c6.35-6.6,9.53-15.74,9.53-27.42s-3.2-20.98-9.6-27.59c-6.4-6.61-14.93-9.92-25.59-9.92ZM533.94,355.06c-3.74,4.2-8.51,6.29-14.34,6.29s-10.63-2.11-14.41-6.34c-3.78-4.23-5.68-10.44-5.68-18.63s1.84-14.55,5.53-18.68c3.68-4.13,8.54-6.19,14.56-6.19s10.85,2.04,14.49,6.12c3.64,4.08,5.45,10.27,5.45,18.56s-1.87,14.68-5.6,18.88ZM612.59,300.25h14.61v38.01c0,8.69-.39,14.82-1.18,18.41-.79,3.59-2.25,6.61-4.37,9.08-2.12,2.47-4.96,4.43-8.51,5.9-3.55,1.46-8.19,2.2-13.92,2.2-6.91,0-12.15-.8-15.72-2.39-3.57-1.6-6.39-3.67-8.47-6.22-2.07-2.55-3.44-5.22-4.1-8.02-.96-4.15-1.43-10.27-1.43-18.36v-38.6h14.61v39.19c0,6.22.18,10.25.54,12.09.62,2.96,2.11,5.34,4.47,7.13,2.35,1.79,5.57,2.69,9.65,2.69s7.27-.85,9.38-2.54c2.11-1.69,3.37-3.78,3.8-6.24.43-2.47.64-6.57.64-12.29v-40.03ZM640.97,300.25h57.5v12.24h-21.42v60.12h-14.61v-60.12h-21.47v-12.24ZM766.49,360.41v12.19h-55.03v-72.36h53.65v12.24h-39.04v16.04h36.33v12.19h-36.33v19.69h40.42Z"/>
      <path class="cls-2" d="M375.18,401.01h22.89v52.63c0,33.84-15.61,48.93-50.63,48.93s-50.51-15.09-50.51-48.93v-52.63h23.72v52.63c0,15.47,4.22,23.32,27.26,23.32s27.26-7.85,27.26-23.32v-52.63ZM209.71,401.01l-80.35,141.14h28.85l62.78-111,13.27,23.51h-19.51l-12.68,22.96h45.1l14.09,24.95h30.11l-57.96-101.56h-23.7ZM415.71,425.08h39.14v77.49h23.25v-77.49h39.14v-24.07h-101.52v24.07ZM637.14,451.79c0,28.05-23.73,50.78-52.99,50.78s-52.99-22.74-52.99-50.78,23.73-50.78,52.99-50.78,52.99,22.74,52.99,50.78ZM613.15,451.79c0-15.35-12.99-27.8-29.01-27.8s-29.01,12.44-29.01,27.8,12.99,27.8,29.01,27.8,29.01-12.44,29.01-27.8Z"/>
      <g>
        <path class="cls-1" d="M440.29,29.08c-22.01-21.66-33.71-26.37-39.1-27.97-.55-.16-2.54-.58-3.46-.05-2.07,1.19-1.59,3.79-.89,6.08l10.07,31.9c2.48,8.1-2.5,16.14-10.11,19.87-27.72,13.58-40.02,5.16-41.72,3.65-1.7-1.51-4.86-12.6-4.86-12.6l-6.84-23.14-2.54-7.29c-.57-1.64-2.52-2.38-3.99-1.46-.05.03-.1.07-.15.1-1.11.78-2.06,2.74-2.54,3.67-7.6,14.72-28.09,62.25,4.62,94.53,3.17,3.13,6.83,6.11,11.06,8.9,5.88,3.89,12.29,13.62,8.92,31.52l-17.04,114.57h98.63l-18.51-119.58c-2.84-15.64-1.7-26.54,2.46-33.97,1.84-3.29,5.39-7.45,9.09-11.62,4.16-4.69,8.52-9.41,10.85-12.96,5.71-8.69,9.44-16.82,9.71-24.49.78-21.85-6.34-32.45-13.67-39.67Z"/>
        <g>
          <path class="cls-4" d="M354.49,124.68c-1.27-.95-6.18-3.39-6.18-3.39,0,0,4.41,3.06,5.67,4.06,1.87,1.42,3.49,3.3,4.82,5.6,2.87,5.14,4.05,11.66,3.53,19.37-.03.35-.07.7-.1,1.05-.08.89-.17,1.81-.3,2.7-2.25,15.47-6.67,46.52-10.58,73.91-2.42,17-4.71,33.06-6.15,43.11l-.05.3h4.69s2.97-25.35,4.95-42.31c3.21-27.5,6.85-58.66,8.61-73.54.02-.19.06-.5.1-.83.05-.41.11-.84.14-1.09.03-.39.06-.77.09-1.16.05-.67.1-1.36.15-2.04.35-7.99-1.06-14.71-4.18-19.98-1.45-2.38-3.21-4.31-5.2-5.75Z"/>
          <path class="cls-4" d="M417.21,127.81c.5-3.42,1.26-6.3,2.33-8.8.22-.54,1.68-4.36,1.68-4.36,0,0-2.24,3.45-2.49,4.01-1.26,2.8-2.18,6.04-2.71,9.65-.74,5.05-.8,10.55-.17,17.32l5.15,42.04,10.28,83.71h4.68s-14.62-99.11-18.56-125.92c-.81-6.82-.86-12.43-.17-17.64Z"/>
          <path class="cls-4" d="M447.46,48.98c-3.46-10.2-9.42-16.31-9.64-16.53-9.72-9.66-18.4-16.88-25.53-21.72-6.09-4.13-9.82-5.59-11.89-6.08-.12-.02-.29-.04-.49-.06.07.36.19.85.39,1.49l10.07,31.91c1.45,4.73.9,9.83-1.55,14.35-2.23,4.13-5.94,7.62-10.43,9.82-30.83,15.1-44.27,4.38-45.7,3.11-.86-.76-1.95-2.11-4.09-8.41-.99-2.92-1.76-5.62-1.84-5.88l-8.76-28.64s-.4.75-.5.95l-.12.23c-5.9,11.43-20.95,44.2-8.07,71.1.37.77.8,1.5,1.31,2.19,0,0,0,0,0,0,12.62,17.3,39.13,20.5,65.52,14.88,12.87-2.74,34.96-9.51,45-21.94,2.51-3.1,5.59-9.5,6.39-12.01,2.39-7.52,3.34-18.68-.08-28.76Z"/>
          <path class="cls-4" d="M430.59,102.39c-3.37,1.89-6.85,3.54-10.41,4.98-22.9,9.06-55.53,15.05-78.24,3.18,19.27,12.08,47.13,8.74,67.75,1.8,3.67-1.23,7.29-2.65,10.8-4.28,3.5-1.65,6.92-3.49,10.11-5.68Z"/>
          <polygon class="cls-4" points="385.97 186.59 396.12 186.59 395.83 164.63 386.26 164.63 385.97 186.59"/>
          <polygon class="cls-4" points="386.65 135.2 386.38 155.57 395.71 155.57 395.43 135.2 386.65 135.2"/>
          <polygon class="cls-4" points="385.47 223.55 396.62 223.55 396.27 197.67 385.82 197.67 385.47 223.55"/>
          <polygon class="cls-4" points="385.28 237.94 384.83 271.38 397.25 271.38 396.81 237.94 385.28 237.94"/>
        </g>
        <path class="cls-3" d="M443.06,50.47c-3.07-9.04-8.34-14.55-8.53-14.74-8.83-8.94-17.5-16.17-24.85-21.16-.82-.56-1.6-1.06-2.32-1.52l7.43,23.54v.02s.01.02.01.02c1.81,5.93,1.14,12.29-1.9,17.92-2.69,4.98-7.12,9.16-12.47,11.78-11.46,5.61-21.96,8.46-31.23,8.46-11.87,0-18-4.63-19.6-6.05-1.71-1.52-3.14-3.7-5.4-10.39-1-2.95-1.79-5.69-1.9-6.08l-5.14-17.39c-2.95,6.95-5.18,13.88-6.55,20.42-2.9,13.77-2.14,25.82,2.24,35.88.65,1.34,1.41,2.6,2.27,3.78,12.62,17.3,41.77,16.64,60.58,11.8,12.24-3.15,32.52-8.7,42.21-20.56h0c5.17-5.61,6.63-14.88,6.64-15,1.39-6.54.9-13.69-1.5-20.74Z"/>
      </g>
    </g>
  </g>
</svg>